<svg xmlns="http://www.w3.org/2000/svg" xmlns:xlink="http://www.w3.org/1999/xlink" width="375" height="812" viewBox="0 0 375 812">
  <defs>
    <clipPath id="clip-path">
      <rect id="Rectangle_2009" data-name="Rectangle 2009" width="375" height="812" fill="#fff"/>
    </clipPath>
    <filter id="clouds_back" x="-127" y="560" width="629" height="337" filterUnits="userSpaceOnUse">
      <feOffset dy="3" input="SourceAlpha"/>
      <feGaussianBlur stdDeviation="10" result="blur"/>
      <feFlood flood-opacity="0.102"/>
      <feComposite operator="in" in2="blur"/>
      <feComposite in="SourceGraphic"/>
    </filter>
    <filter id="clouds_mid" x="-127" y="638" width="629" height="337" filterUnits="userSpaceOnUse">
      <feOffset dy="3" input="SourceAlpha"/>
      <feGaussianBlur stdDeviation="10" result="blur-2"/>
      <feFlood flood-opacity="0.102"/>
      <feComposite operator="in" in2="blur-2"/>
      <feComposite in="SourceGraphic"/>
    </filter>
    <filter id="clouds_front" x="-127" y="715" width="629" height="337" filterUnits="userSpaceOnUse">
      <feOffset dy="3" input="SourceAlpha"/>
      <feGaussianBlur stdDeviation="10" result="blur-3"/>
      <feFlood flood-opacity="0.102"/>
      <feComposite operator="in" in2="blur-3"/>
      <feComposite in="SourceGraphic"/>
    </filter>
  </defs>
  <g id="img_background_clouds_footer" clip-path="url(#clip-path)">
    <g id="Clouds">
      <g transform="matrix(1, 0, 0, 1, 0, 0)" filter="url(#clouds_back)">
        <path id="clouds_back-2" data-name="clouds_back" d="M-1245,144.5A132.5,132.5,0,0,1-1112.5,12a131.932,131.932,0,0,1,82.8,29.055A106.227,106.227,0,0,1-991.5,34a106.938,106.938,0,0,1,21.378,2.146A112.188,112.188,0,0,1-887.5,0a112,112,0,0,1,67.479,22.476A112.579,112.579,0,0,1-788.5,18,112.5,112.5,0,0,1-676,130.5,112.5,112.5,0,0,1-788.5,243a112,112,0,0,1-67.479-22.476A112.578,112.578,0,0,1-887.5,225a112.493,112.493,0,0,1-33.167-4.969A106.115,106.115,0,0,1-991.5,247a106.443,106.443,0,0,1-31.548-4.75A132.033,132.033,0,0,1-1112.5,277,132.5,132.5,0,0,1-1245,144.5Z" transform="translate(1148 587)" fill="#560f9f"/>
      </g>
      <g transform="matrix(1, 0, 0, 1, 0, 0)" filter="url(#clouds_mid)">
        <path id="clouds_mid-2" data-name="clouds_mid" d="M-897.952,242.249A106.446,106.446,0,0,1-929.5,247a106.089,106.089,0,0,1-70.832-26.969A112.493,112.493,0,0,1-1033.5,225a112.578,112.578,0,0,1-31.521-4.476A112,112,0,0,1-1132.5,243,112.5,112.5,0,0,1-1245,130.5,112.5,112.5,0,0,1-1132.5,18a112.577,112.577,0,0,1,31.521,4.476A112,112,0,0,1-1033.5,0a112.188,112.188,0,0,1,82.622,36.146A106.933,106.933,0,0,1-929.5,34a106.23,106.23,0,0,1,38.2,7.054A131.934,131.934,0,0,1-808.5,12,132.5,132.5,0,0,1-676,144.5,132.5,132.5,0,0,1-808.5,277,132.035,132.035,0,0,1-897.952,242.249Z" transform="translate(1148 665)" fill="#6e20be"/>
      </g>
      <g transform="matrix(1, 0, 0, 1, 0, 0)" filter="url(#clouds_front)">
        <path id="clouds_front-2" data-name="clouds_front" d="M-1245,144.5A132.5,132.5,0,0,1-1112.5,12a131.932,131.932,0,0,1,82.8,29.055A106.227,106.227,0,0,1-991.5,34a106.938,106.938,0,0,1,21.378,2.146A112.188,112.188,0,0,1-887.5,0a112,112,0,0,1,67.479,22.476A112.579,112.579,0,0,1-788.5,18,112.5,112.5,0,0,1-676,130.5,112.5,112.5,0,0,1-788.5,243a112,112,0,0,1-67.479-22.476A112.578,112.578,0,0,1-887.5,225a112.493,112.493,0,0,1-33.167-4.969A106.115,106.115,0,0,1-991.5,247a106.443,106.443,0,0,1-31.548-4.75A132.033,132.033,0,0,1-1112.5,277,132.5,132.5,0,0,1-1245,144.5Z" transform="translate(1148 742)" fill="#9349de"/>
      </g>
      <rect id="Area" width="401" height="587" transform="translate(-26 820)" fill="#9349de"/>
    </g>
  </g>
</svg>
